<svg xmlns="http://www.w3.org/2000/svg" width="335" height="244.733"><defs><filter id="b" x="187.707" y="88.634" width="53.098" height="57.398" filterUnits="userSpaceOnUse"><feOffset dx="2" dy="4"/><feGaussianBlur stdDeviation="8" result="blur"/><feFlood flood-opacity=".102"/><feComposite operator="in" in2="blur"/><feComposite in="SourceGraphic"/></filter><filter id="c" x="147" y="63.394" width="108.711" height="107.879" filterUnits="userSpaceOnUse"><feOffset dx="2" dy="4"/><feGaussianBlur stdDeviation="8" result="blur-2"/><feFlood flood-opacity=".102"/><feComposite operator="in" in2="blur-2"/><feComposite in="SourceGraphic"/></filter><filter id="d" x="174.807" y="95.084" width="53.098" height="50.948" filterUnits="userSpaceOnUse"><feOffset dx="2" dy="4"/><feGaussianBlur stdDeviation="8" result="blur-3"/><feFlood flood-opacity=".102"/><feComposite operator="in" in2="blur-3"/><feComposite in="SourceGraphic"/></filter><filter id="g" x="250.241" y="-1.004" width="67.958" height="69.712" filterUnits="userSpaceOnUse"><feOffset dx="2" dy="4"/><feGaussianBlur stdDeviation="8" result="blur-4"/><feFlood flood-opacity=".102"/><feComposite operator="in" in2="blur-4"/><feComposite in="SourceGraphic"/></filter><filter id="i" x="239" y="20.343" width="90.904" height="85.875" filterUnits="userSpaceOnUse"><feOffset dx="2" dy="4"/><feGaussianBlur stdDeviation="8" result="blur-5"/><feFlood flood-opacity=".102"/><feComposite operator="in" in2="blur-5"/><feComposite in="SourceGraphic"/></filter><filter id="j" x="250.217" y="0" width="64.531" height="68.792" filterUnits="userSpaceOnUse"><feOffset dx="2" dy="4"/><feGaussianBlur stdDeviation="8" result="blur-6"/><feFlood flood-opacity=".102"/><feComposite operator="in" in2="blur-6"/><feComposite in="SourceGraphic"/></filter><filter id="k" x="260.844" y="20.707" width="48.59" height="48.17" filterUnits="userSpaceOnUse"><feOffset dx="2" dy="4"/><feGaussianBlur stdDeviation="8" result="blur-7"/><feFlood flood-opacity=".102"/><feComposite operator="in" in2="blur-7"/><feComposite in="SourceGraphic"/></filter><filter id="l" x="260.844" y="20.739" width="48.59" height="48.105" filterUnits="userSpaceOnUse"><feOffset dx="2" dy="4"/><feGaussianBlur stdDeviation="8" result="blur-8"/><feFlood flood-opacity=".102"/><feComposite operator="in" in2="blur-8"/><feComposite in="SourceGraphic"/></filter><filter id="s" x="25.133" y="187.133" width="71.119" height="57.6" filterUnits="userSpaceOnUse"><feOffset dx="2" dy="4"/><feGaussianBlur stdDeviation="8" result="blur-9"/><feFlood flood-opacity=".102"/><feComposite operator="in" in2="blur-9"/><feComposite in="SourceGraphic"/></filter><filter id="t" x="60.21" y="187.133" width="71.119" height="57.6" filterUnits="userSpaceOnUse"><feOffset dx="2" dy="4"/><feGaussianBlur stdDeviation="8" result="blur-10"/><feFlood flood-opacity=".102"/><feComposite operator="in" in2="blur-10"/><feComposite in="SourceGraphic"/></filter><filter id="u" x="34.699" y="111.933" width="95.035" height="101.6" filterUnits="userSpaceOnUse"><feOffset dx="2" dy="4"/><feGaussianBlur stdDeviation="8" result="blur-11"/><feFlood flood-opacity=".102"/><feComposite operator="in" in2="blur-11"/><feComposite in="SourceGraphic"/></filter><filter id="v" x="73.762" y="117.533" width="77.497" height="77.6" filterUnits="userSpaceOnUse"><feOffset dx="2" dy="4"/><feGaussianBlur stdDeviation="8" result="blur-12"/><feFlood flood-opacity=".102"/><feComposite operator="in" in2="blur-12"/><feComposite in="SourceGraphic"/></filter><filter id="w" x="31.51" y="112.733" width="68.727" height="96" filterUnits="userSpaceOnUse"><feOffset dx="2" dy="4"/><feGaussianBlur stdDeviation="8" result="blur-13"/><feFlood flood-opacity=".102"/><feComposite operator="in" in2="blur-13"/><feComposite in="SourceGraphic"/></filter><filter id="y" x="110.434" y="99.933" width="57.566" height="65.6" filterUnits="userSpaceOnUse"><feOffset dx="2" dy="4"/><feGaussianBlur stdDeviation="8" result="blur-14"/><feFlood flood-opacity=".102"/><feComposite operator="in" in2="blur-14"/><feComposite in="SourceGraphic"/></filter><clipPath id="a"><path data-name="Clip 2" d="M0 0h335v210H0z" fill="none"/></clipPath><clipPath id="e"><path data-name="Clip 2" d="M0 0h16.265v11.047H0z" transform="translate(.119 .178)" fill="none"/></clipPath><clipPath id="f"><path data-name="Clip 5" d="M0 0h19.958v21.712H0z" transform="translate(.024 .185)" fill="none"/></clipPath><clipPath id="h"><path data-name="Clip 8" d="M0 0h42.9v37.875H0z" transform="translate(0 .145)" fill="none"/></clipPath><clipPath id="m"><path data-name="Clip 2" d="M0 0h11.664v8.415H0z" transform="translate(.116 .059)" fill="none"/></clipPath><clipPath id="n"><path data-name="Clip 7" d="M0 0h5.433v3.947H0z" transform="translate(0 .116)" fill="none"/></clipPath><clipPath id="o"><path data-name="Clip 12" d="M0 0h5.283v4.2H0z" transform="translate(.057 .057)" fill="none"/></clipPath><clipPath id="p"><path data-name="Clip 17" d="M0 0h18.9v29.667H0z" transform="translate(.03 .061)" fill="none"/></clipPath><clipPath id="q"><path data-name="Clip 2" d="M0 0h32.675v28.573H0z" transform="translate(.182 .057)" fill="none"/></clipPath><clipPath id="r"><path data-name="Clip 11" d="M0 0h36.724v22.845H0z" transform="translate(0 .164)" fill="none"/></clipPath><clipPath id="x"><path data-name="Clip 341" d="M0 0h22.671v46.905H0z" transform="translate(.096 .295)" fill="none"/></clipPath></defs><g data-name="Illus / 5"><g data-name="Group 3"><path data-name="Clip 2" d="M0 8.333h335v210H0z" fill="none"/><g data-name="Group 3" clip-path="url(#a)" transform="translate(0 8.333)"><path data-name="Fill 1" d="M4.142 124.123s8.764-14.875 35.787-26.093c2.435-1.951 40.9-10.956 45.646-50.47C88.5 42.431 114.668 4.145 154.35 0c4.382 0 42.969 1.1 70.357 24.873 3.287 3.13 11.686 10.242 27.023 6.218 4.017-3.088 61.349-8.413 66.218 38.9 0 5.121 1.461 7.072-5.356 23.41-1.7 2.926-10.468 18.777 0 29.263 3.165 3.658 26.049 32.433 21.91 48.772-.974 4.145-10.712 27.312-53.559 33.408-13.877 1.219-176.013 10.974-238.092 0C26.986 196.22 2.317 175.906.856 155.441c-1.826-3.569-.73-23.148 3.287-31.318" fill="#f2f2f2"/></g></g><path data-name="Path" d="M232.829 218.333l-68.068-.312A14.808 14.808 0 01150 203.177l.724-170.122a14.807 14.807 0 0114.896-14.722l68.068.312a14.807 14.807 0 0114.762 14.844l-.724 170.122a14.8 14.8 0 01-14.897 14.722z" fill="#8f5f43"/><path data-name="Path" d="M233.494 24.078l-13.159-.061a3.272 3.272 0 00-3.211 3.335l-.013 2.391a3.272 3.272 0 01-3.21 3.336l-25.65-.12a3.274 3.274 0 01-3.179-3.366l.012-2.391a3.282 3.282 0 00-3.184-3.363l-4.629-.025-11.515-.055a10.372 10.372 0 00-10.405 10.337l-.7 166.524a10.362 10.362 0 0010.3 10.423l67.738.313a10.372 10.372 0 0010.4-10.337l.7-166.524a10.356 10.356 0 00-10.295-10.417z" fill="#fff"/><g filter="url(#b)" transform="translate(0 .003)"><path data-name="Path" d="M213.334 108.63h-2.15a1.476 1.476 0 00-1.474 1.474v6.45a1.476 1.476 0 001.474 1.476h2.15a1.476 1.476 0 001.476-1.476v-6.45a1.475 1.475 0 00-1.476-1.474z" fill="#390b12"/></g><g filter="url(#c)" transform="translate(0 .003)"><path data-name="Shape" d="M211.432 127.684a1.751 1.751 0 10-3.432-.688 34.887 34.887 0 01-3.992 11.236c-1.049 1.689-2.707 3.7-4.651 3.7s-3.6-2.013-4.651-3.7a34.909 34.909 0 01-3.992-11.236 1.751 1.751 0 10-3.434.688c1.48 7.38 3.967 12.785 7.033 15.584a30.36 30.36 0 01-16.42-51.4 30.133 30.133 0 0116.419-8.478c-3.065 2.8-5.554 8.2-7.033 15.584a1.751 1.751 0 103.433.688 34.873 34.873 0 013.988-11.234c1.049-1.689 2.707-3.7 4.651-3.7s3.6 2.014 4.651 3.7A34.888 34.888 0 01208 99.663a1.751 1.751 0 103.434-.688c-1.48-7.385-3.968-12.785-7.034-15.585a30.36 30.36 0 0116.42 51.4 30.127 30.127 0 01-16.42 8.479c3.065-2.8 5.554-8.205 7.032-15.585z" fill="#390b12"/></g><g filter="url(#d)" transform="translate(0 .003)"><path data-name="Path" d="M200.434 115.08h-3.624v1.474a1.476 1.476 0 001.474 1.474h2.15a1.474 1.474 0 000-2.948z" fill="#390b12"/></g><g data-name="Dress"><g data-name="Group 3"><path data-name="Clip 2" d="M274.698 18.99h16.265v11.047h-16.265z" fill="none"/><g data-name="Group 3" clip-path="url(#e)" transform="translate(274.579 18.812)"><path data-name="Fill 1" d="M.119.69L1.936.178A9.174 9.174 0 007.819 2.13 15.609 15.609 0 0013.47.478l2.914.691s-4.4 11-8.133 9.994S.119.69.119.69" fill="#8f5f43"/></g></g><g data-name="Group 6"><path data-name="Clip 5" d="M272.241 18.997h19.958v21.712h-19.958z" fill="none"/><g data-name="Group 6" clip-path="url(#f)" transform="translate(272.217 18.812)"><g transform="translate(-272.22 -18.81)" filter="url(#g)"><path data-name="Fill 4" d="M273.462 29.078a19.418 19.418 0 00.393 3.746c.327.854.917 2.432.917 2.432l.72 5.456h13.49l.589-5.817a18.229 18.229 0 001.179-3.648v-2.661q0-.309.03-.618c.137-1.406.807-6.7 1.419-7.651l-4.091-1.01s-2.335 7.515-6.46 6.638S276.649 19 276.649 19l-4.409 1.293s2.2 6.945 1.222 8.786" fill="#390b12"/></g></g></g><g data-name="Group 9"><path data-name="Clip 8" d="M261 40.343h42.9v37.875H261z" fill="none"/><g data-name="Group 9" clip-path="url(#h)" transform="translate(261 40.198)"><g transform="translate(-261 -40.2)" filter="url(#i)"><path data-name="Fill 7" d="M275.523 40.34h13.344s8.119 10.283 11.746 21.872 3.287 12.461 3.287 12.461-9.765 4.967-17.97 3.137-19.514 2.084-24.93-3.38c0 0 8.067-27.576 14.523-34.09" fill="#390b12"/></g></g></g><g transform="translate(0 .003)" filter="url(#j)"><path data-name="Fill 18" d="M279.39 39.312c-3.352-1.719-4.309-14.051-6.231-19.312l-.939.283s2.156 6.975 1.2 8.824a20.011 20.011 0 00.38 3.763c.32.858.9 2.443.9 2.443l.7 5.479h13.193l.158-1.6c-1.514.616-6.428 1.621-9.361.116" fill="#390b12"/></g><path data-name="Fill 20" d="M281.981 41.386a28.97 28.97 0 01-6.812-.514l.083-.661a30.235 30.235 0 006.729.521 38.044 38.044 0 006.767-.534l-.014.67a37.632 37.632 0 01-6.753.518" fill="#fff"/><path data-name="Fill 22" d="M283.435 41.016a.738.738 0 01-.093.36c-.165.007-.334.01-.505.01H282.265a11.319 11.319 0 01-3.338-.503.356.356 0 01-.206-.413.33.33 0 01.423-.256 12.111 12.111 0 003.125.428H282.838c.169 0 .335 0 .5-.007a.724.724 0 01.1.372" fill="#745075"/><path data-name="Fill 24" d="M283.274 41.377a13.925 13.925 0 01-4.348-.494.354.354 0 01-.205-.411.338.338 0 01.323-.274.351.351 0 01.1.017 14.609 14.609 0 004.118.433.481.481 0 01.012.729" fill="#fff"/><path data-name="Fill 26" d="M283.334 41.439a1.459 1.459 0 01-2.261.01h.319a1.189 1.189 0 00.81.285 1.174 1.174 0 00.822-.291c.633-.695-.821-1.395-1.588-.75-.108-.005-.223-.01-.327-.02a1.363 1.363 0 011.093-.475c.9 0 1.476.674 1.131 1.241" fill="#8f5f43"/><path data-name="Fill 28" d="M282.932 40.792a.087.087 0 01-.087.087.087.087 0 01-.086-.087.087.087 0 01.086-.089.087.087 0 01.087.089" fill="#3c233d"/><g transform="translate(0 .003)" filter="url(#k)"><path data-name="Fill 30" d="M283.277 40.88h-.284c-.084 0-.153-.04-.153-.087s.069-.085.153-.085h.284c.085 0 .153.038.153.085s-.068.087-.153.087" fill="#390b12"/></g><g transform="translate(0 .003)" filter="url(#l)"><path data-name="Fill 32" d="M283.423 40.741a.17.17 0 01-.153.064h-.43a.211.211 0 00.134.041h.3c.085 0 .156-.038.156-.085a.054.054 0 00-.007-.02" fill="#390b12"/></g><path data-name="Fill 34" d="M281.664 40.388a1.382 1.382 0 011.751.269c.061.074-.032.185-.093.111l-.006-.009a1.341 1.341 0 00-1.652-.371" fill="#8f5f43"/><path data-name="Fill 36" d="M281.664 41.804a1.409 1.409 0 001.752-.286c.061-.073-.033-.181-.094-.108l-.007.009a1.366 1.366 0 01-1.651.385" fill="#8f5f43"/></g><g><g data-name="Group 23"><g data-name="Group 3"><path data-name="Clip 2" d="M304.071 103.469h11.664v8.415h-11.664z" fill="none"/><g data-name="Group 3" clip-path="url(#m)" transform="translate(303.955 103.41)"><path data-name="Fill 1" d="M1.844 8.128L.116.9.93.493s5.034 1.088 9.11-.434l1.739.63-1.617 7.785z" fill="#390b12"/></g></g><path data-name="Fill 4" d="M314.964 104.048l.76.223.01-.047-1.74-.63c-4.076 1.522-9.11.434-9.11.434l-.814.407.026.109c1.452.207 6.587.8 10.868-.5" fill="#8f5f43"/><g data-name="Group 8"><path data-name="Clip 7" d="M297 113.617h5.433v3.947H297z" fill="none"/><g data-name="Group 8" clip-path="url(#n)" transform="translate(297 113.501)"><path data-name="Fill 6" d="M3.025.116L.057.242s-.316.545.536 1.4 4.746 2.747 4.829 2.374A3.782 3.782 0 004.8 1.98C4.468 1.65 3.025.116 3.025.116" fill="#390b12"/></g></g><path data-name="Fill 9" d="M297.057 113.743s4.764 1.995 5.364 3.774l.656-2.956.388-5.946-3.027-2.363z" fill="#8f5f43"/><g data-name="Group 13"><path data-name="Clip 12" d="M317.512 113.149h5.283v4.2h-5.283z" fill="none"/><g data-name="Group 13" clip-path="url(#o)" transform="translate(317.455 113.092)"><path data-name="Fill 11" d="M5.336.057C5.502.548.862 4.572.057 4.242a7.3 7.3 0 01.331-1.743C.684 1.593 3.833-.015 5.336.057" fill="#390b12"/></g></g><path data-name="Fill 14" d="M319.341 105.531l3.45 7.621s-4.842 1.564-5.279 4.179l-.53-2.658v-4.813z" fill="#8f5f43"/><g data-name="Group 18"><path data-name="Clip 17" d="M300.439 103.608h18.9v29.667h-18.9z" fill="none"/><g data-name="Group 18" clip-path="url(#p)" transform="translate(300.409 103.547)"><path data-name="Fill 16" d="M.03 2.706s2.673 6.229 2.673 7.792S1.694 24.938.875 28.606c0 0 10.964 2.3 17.02.315 0 0-1.977-11.9-1.322-17.795.036-.324 2.359-9.142 2.359-9.142L13.622.061s-1.208 4.533-4.835 4.533c-2.9 0-4.425-4.055-4.425-4.055z" fill="#390b12"/></g></g><path data-name="Fill 19" d="M304.07 123.82c.523-2.156 5.546-1.321 1.864-5-3.042-3.041-3.252-11.019-3.233-13.7l-2.262 1.132s2.673 6.229 2.673 7.792-1.009 14.44-1.828 18.108a62.049 62.049 0 008.216 1.051 4.4 4.4 0 00-.7-3.267c-1.698-2.316-5.252-3.955-4.73-6.116" fill="#390b12"/><path data-name="Fill 21" d="M309.252 108.754c2.666 0 4.507-3.241 5.3-4.959l-.558-.201s-1.231 4.364-4.858 4.364c-2.899 0-4.251-3.93-4.251-3.93l-.613.306c.93 1.582 2.89 4.42 4.98 4.42" fill="#8f5f43"/></g></g><g data-name="Group 17"><g data-name="Group 3"><path data-name="Clip 2" d="M264.262 149.687h32.675v28.573h-32.675z" fill="none"/><g data-name="Group 3" clip-path="url(#q)" transform="translate(264.08 149.63)"><path data-name="Fill 1" d="M32.837 13.728l-4.386 14.888v.014l-.935-.563-5.908-3.55-5.034-3.023L.182 11.642v-.012L10.61 1.522l.06-.057.927-.9.064-.06.141-.138a.736.736 0 01.321-.184c.834-.226 3.759-.726 12.02 4.688 5.9 3.9 9 7.491 8.694 8.857" fill="#390b12"/></g></g><path data-name="Fill 4" d="M288.222 154.5a32.927 32.927 0 00-8.886-4.483c2.472 2.376 4.961 5.241 6.038 7.873 2.029 4.955-2.62 10.912-4.874 13.4l12.657 7.806 3.759-15.739c.3-1.367-2.789-4.953-8.694-8.857" fill="#390b12"/><path data-name="Fill 6" d="M293.16 179.129c-.954-1.1-5.832-5.024-13.805-9.961s-14.102-8.137-15.072-7.915l-7.214 2.706 36.656 22.711z" fill="#8f5f43"/><path data-name="Fill 8" d="M293.159 179.129c.049-.692-3.341-3.182-8.661-6.682a53.061 53.061 0 013.615 5.6 21.536 21.536 0 011.777 6.245l3.835 2.374z" fill="#8f5f43"/><g data-name="Group 12"><path data-name="Clip 11" d="M257 163.953h36.724v22.845H257z" fill="none"/><g data-name="Group 12" clip-path="url(#r)" transform="translate(257 163.789)"><path data-name="Fill 10" d="M36.722 22.899c-.285.882-9.093-3.655-19.221-9.924S-.72.692.051.178c.412-.276 9.09 3.672 19.218 9.942s17.622 12.253 17.453 12.779" fill="#390b12"/></g></g><path data-name="Fill 13" d="M296.577 164.384a.04.04 0 01-.028-.014c-.2-.2-.422-.408-.648-.616a.027.027 0 01-.013-.021.04.04 0 01.013-.032.043.043 0 01.029-.013.024.024 0 01.02.009c.2.185.416.388.655.619a.04.04 0 010 .053.032.032 0 01-.028.015zm-1.313-1.22a.029.029 0 01-.022-.014l-.283-.249-.017-.015-.372-.327a.043.043 0 010-.057.033.033 0 01.026-.012.04.04 0 01.028.012l.077.067c.2.173.4.352.6.528a.027.027 0 01.013.022.034.034 0 01-.013.028.03.03 0 01-.035.016zm-1.352-1.183a.026.026 0 01-.022-.011l-.349-.291-.338-.282a.03.03 0 01-.017-.02.04.04 0 01.009-.033.037.037 0 01.053 0c.171.138.337.278.5.414l.189.159a.037.037 0 01.017.025.04.04 0 01-.01.031.043.043 0 01-.029.008zm-1.381-1.139a.037.037 0 01-.017 0h-.008a37.914 37.914 0 00-.441-.354l-.257-.205a.037.037 0 01-.018-.029.029.029 0 01.011-.025.034.034 0 01.028-.015.029.029 0 01.021.009c.246.187.483.379.7.559a.033.033 0 01.012.023.04.04 0 01-.009.031.032.032 0 01-.019.005zm-1.406-1.109a.037.037 0 01-.024-.011c-.25-.193-.476-.368-.712-.545a.029.029 0 01-.014-.02.038.038 0 01.007-.029.036.036 0 01.032-.016.057.057 0 01.024.006l.113.086.6.459a.037.037 0 01.011.053.049.049 0 01-.037.017zm-1.43-1.084a.035.035 0 01-.017 0h-.007l-.2-.146-.523-.382a.041.041 0 01-.007-.057.042.042 0 01.032-.014.034.034 0 01.021.007l.05.036c.233.169.452.327.673.491a.046.046 0 01.011.057.044.044 0 01-.033.009zm-1.451-1.051a.038.038 0 01-.022-.007l-.366-.258-.366-.258a.031.031 0 01-.017-.02.043.043 0 01.006-.033.04.04 0 01.032-.016.047.047 0 01.021.005l.3.211c.147.1.29.205.433.305a.033.033 0 01.015.022.045.045 0 01-.008.035.045.045 0 01-.028.014zm-1.474-1.026a.046.046 0 01-.016 0 49.204 49.204 0 00-.743-.5.033.033 0 01-.016-.023.038.038 0 01.008-.031.028.028 0 01.028-.017.043.043 0 01.022.006l.093.063c.213.143.433.291.65.44a.042.042 0 01.016.026.034.034 0 01-.005.027.042.042 0 01-.037.009zm-1.49-1a.051.051 0 01-.022-.007 64.172 64.172 0 00-.751-.489.033.033 0 01-.016-.023.043.043 0 010-.029.036.036 0 01.032-.017.04.04 0 01.021.006c.269.17.515.33.751.489a.039.039 0 01.014.053.052.052 0 01-.032.018zm-1.503-.971a.023.023 0 01-.018-.007c-.191-.117-.385-.238-.573-.355l-.093-.058-.099-.058a.041.041 0 01-.017-.026.036.036 0 010-.027.043.043 0 01.034-.018.042.042 0 01.023.008h.014c.247.157.5.311.738.46h.006a.046.046 0 01.014.057.051.051 0 01-.029.024zm-1.53-.939a.02.02 0 01-.018-.007l-.481-.287-.29-.173a.031.031 0 01-.018-.019.036.036 0 010-.03.04.04 0 01.037-.02.039.039 0 01.019 0l.28.167.492.294a.038.038 0 01.014.049.039.039 0 01-.035.026zm-1.547-.909a.032.032 0 01-.018 0c-.268-.157-.534-.3-.782-.439a.042.042 0 01-.014-.053.038.038 0 01.032-.028.034.034 0 01.018.005c.175.095.353.2.525.292l.261.147a.037.037 0 01.017.024.046.046 0 01-.039.047zm-1.564-.868a.03.03 0 01-.017 0 47.265 47.265 0 00-.8-.42.039.039 0 01-.014-.053.038.038 0 01.032-.019.032.032 0 01.017.005l.456.24h.009l.019.01.308.162a.041.041 0 01.022.026.034.034 0 010 .027.049.049 0 01-.032.022zm-1.593-.825a.048.048 0 01-.022-.006 28.971 28.971 0 00-.804-.39.037.037 0 01-.017-.05.035.035 0 01.032-.022.039.039 0 01.017 0c.248.114.5.238.806.39a.041.041 0 01.022.057.045.045 0 01-.034.021z" fill="#4a6792"/><path data-name="Fill 15" d="M295.903 165.478a.077.077 0 01-.026-.006 47.605 47.605 0 00-.654-.62.04.04 0 01-.011-.028.035.035 0 01.011-.025.039.039 0 01.054 0c.241.222.474.445.651.616a.047.047 0 010 .057h-.011a.065.065 0 01-.014.006zm-1.314-1.221a.06.06 0 01-.023-.005c-.217-.2-.45-.4-.67-.595a.036.036 0 010-.053.037.037 0 01.03-.015.036.036 0 01.022.007c.163.142.325.286.485.428h.005l.183.162a.045.045 0 010 .057.041.041 0 01-.032.014zm-1.352-1.179a.03.03 0 01-.025-.007c-.222-.188-.45-.38-.69-.573a.041.041 0 010-.057.044.044 0 01.032-.013.034.034 0 01.02.006c.229.194.461.388.69.577a.044.044 0 01.013.031.03.03 0 01-.009.022.032.032 0 01-.03.014zm-1.384-1.139a.028.028 0 01-.022-.011 66.795 66.795 0 00-.7-.556.044.044 0 010-.057.045.045 0 01.032-.013.034.034 0 01.021.006l.3.237.005.005c.134.107.268.214.4.322a.033.033 0 01.016.023.038.038 0 01-.008.031h-.007a.049.049 0 01-.036.012zm-1.409-1.113a.048.048 0 01-.021-.006c-.2-.156-.423-.323-.715-.542a.037.037 0 010-.057.032.032 0 01.027-.015.028.028 0 01.023.012c.293.219.514.386.716.542a.041.041 0 01.007.052.033.033 0 01-.037.014zm-1.43-1.079c-.006 0-.017 0-.021-.007-.241-.177-.481-.354-.725-.531a.033.033 0 01-.016-.023.037.037 0 01.008-.03.032.032 0 01.028-.016.042.042 0 01.025.009l.36.264.36.264a.034.034 0 01.013.023.039.039 0 01-.009.03c.003.013-.012.017-.023.017zm-1.45-1.052a.07.07 0 01-.025 0c-.235-.17-.482-.344-.733-.517a.038.038 0 01-.007-.052.036.036 0 01.031-.018.034.034 0 01.023.01l.229.16c.167.116.338.235.5.354a.039.039 0 01.011.053.03.03 0 01-.029.01zm-1.469-1.026c-.011 0-.018 0-.022-.007-.145-.1-.289-.193-.433-.29l-.009-.006-.3-.2a.046.046 0 01-.018-.031.041.041 0 01.038-.042.03.03 0 01.017.002c.237.159.492.33.748.506a.03.03 0 01.013.02.041.041 0 01-.035.047zm-1.49-1a.026.026 0 01-.021-.007 58.197 58.197 0 00-.491-.32h-.005l-.256-.167a.035.035 0 01-.018-.022.04.04 0 010-.031.045.045 0 01.034-.018.027.027 0 01.019.008c.2.127.4.254.6.388l.153.1a.041.041 0 01.014.027.034.034 0 01-.008.026.031.031 0 01-.022.017zm-1.508-.97a.044.044 0 01-.022-.004 28.996 28.996 0 00-.761-.474.04.04 0 01-.018-.026.033.033 0 01.007-.027.032.032 0 01.03-.018.057.057 0 01.021 0c.264.162.522.325.761.478a.028.028 0 01.017.019.032.032 0 01-.007.029.03.03 0 01-.029.024zm-1.527-.94a.038.038 0 01-.022-.007l-.125-.074c-.221-.131-.434-.258-.646-.382a.04.04 0 01-.014-.053.045.045 0 01.036-.019.046.046 0 01.021.005l.1.057c.219.13.446.264.672.4a.041.041 0 01.01.057.039.039 0 01-.032.016zm-1.546-.91a.044.044 0 01-.022 0l-.522-.3-.252-.143c-.021-.007-.024-.033-.017-.054a.034.034 0 01.031-.016.043.043 0 01.022.006l.128.071c.214.119.435.241.654.367a.038.038 0 01-.017.071zm-1.572-.871a.051.051 0 01-.018 0 32.59 32.59 0 00-.793-.418.031.031 0 01-.017-.019.038.038 0 010-.031.033.033 0 01.035-.025.035.035 0 01.018 0c.251.128.519.268.8.418a.043.043 0 01.013.053c-.01.019-.02.022-.038.022zm-1.593-.825h-.015l-.262-.128c-.193-.093-.367-.18-.548-.264a.038.038 0 01-.018-.05.043.043 0 01.039-.024h.015l.072.038c.239.116.487.236.735.362a.027.027 0 01.018.014.04.04 0 010 .032.031.031 0 01-.036.02zm-1.613-.758a.058.058 0 01-.022-.009l-.061-.027a25.236 25.236 0 01-.474-.207l.06-.057c.18.08.418.186.506.223a.039.039 0 01.028.044.036.036 0 01-.037.033z" fill="#4a6792"/></g><g><g transform="translate(0 .003)" filter="url(#s)"><path data-name="Fill 178" d="M66.621 207.13s-18.084 4.819-18.809 5.065c-1.089.369-.906 4.212.789 4.152.8-.028 13.89.469 15.544.37a35.184 35.184 0 006.1-1.792z" fill="#390b12"/></g><path data-name="Fill 180" d="M59.05 213.533a13.321 13.321 0 00-.9-1.72 16.215 16.215 0 00-1.451-1.474 3.5 3.5 0 011.746 1.34 2.368 2.368 0 01.6 1.854" fill="#1a2e35"/><path data-name="Fill 182" d="M60.66 212.733c-.08.014-.244-.777-.678-1.652s-.945-1.487-.891-1.548a3.136 3.136 0 011.13 1.418 3.238 3.238 0 01.439 1.782" fill="#1a2e35"/><path data-name="Fill 184" d="M62.953 212.733a9.524 9.524 0 00-.44-1.7 10.71 10.71 0 00-1.03-1.495 2.614 2.614 0 011.319 1.4 2.109 2.109 0 01.151 1.795" fill="#1a2e35"/><path data-name="Fill 186" d="M62.47 210.039a3.713 3.713 0 01-.19-1.443 7.425 7.425 0 01.179-1.582 7.152 7.152 0 01.263-.9 1.1 1.1 0 01.284-.475.442.442 0 01.608.033.894.894 0 01.236.548 4.154 4.154 0 01.023.513 4.656 4.656 0 01-.109.949 6.075 6.075 0 01-.545 1.482 3.867 3.867 0 01-.795 1.169c-.044-.032.256-.484.61-1.275a6.8 6.8 0 00.464-1.442 4.622 4.622 0 00.082-.883c0-.3 0-.673-.16-.816a.161.161 0 00-.234-.021.833.833 0 00-.194.337 7.632 7.632 0 00-.268.855 8.461 8.461 0 00-.235 1.516c-.052.878.029 1.429-.019 1.435" fill="#1a2e35"/><path data-name="Fill 188" d="M62.28 210.487a2.378 2.378 0 011.028-.154 4.958 4.958 0 011.131.129 2.613 2.613 0 01.651.224.615.615 0 01.36.677.773.773 0 01-.574.529 1.554 1.554 0 01-.715 0 2.826 2.826 0 01-1.035-.476 2.7 2.7 0 01-.746-.678 7.038 7.038 0 01.854.535 2.943 2.943 0 00.977.394 1.355 1.355 0 00.591-.007.524.524 0 00.388-.354.376.376 0 00-.237-.413 2.529 2.529 0 00-.573-.21 5.709 5.709 0 00-1.078-.174c-.622-.041-1.015.018-1.022-.022" fill="#1a2e35"/><path data-name="Fill 190" d="M56.538 214.333a9.4 9.4 0 00-.41-1.708 10.106 10.106 0 00-1.023-1.484 2.313 2.313 0 011.345 1.363 2.016 2.016 0 01.088 1.829" fill="#1a2e35"/><path data-name="Fill 192" d="M68.657 215.133a3.694 3.694 0 01-.69.326 15.231 15.231 0 01-1.984.618 28.166 28.166 0 01-6.809.656c-2.672-.03-5.08-.152-6.827-.222l-2.067-.112a3.683 3.683 0 01-.756-.082 3.709 3.709 0 01.76-.035l2.069.015 6.823.136a31.746 31.746 0 006.76-.555c1.705-.355 2.7-.796 2.721-.745" fill="#1a2e35"/><path data-name="Fill 194" d="M69.454 215.08c-.025.042-.519-.247-1.354-.618a6.253 6.253 0 00-3.415-.572 5.4 5.4 0 00-2.954 1.77 10.6 10.6 0 01-1.046 1.073 5.646 5.646 0 01.886-1.218 7.194 7.194 0 011.198-1.129 4.28 4.28 0 011.866-.796 5.934 5.934 0 013.556.678 4.8 4.8 0 011.263.813" fill="#1a2e35"/><path data-name="Fill 196" d="M51.192 215.933c-.035-.024.128-.281.278-.734a3.758 3.758 0 00.139-1.824 3.728 3.728 0 00-.769-1.655c-.299-.369-.54-.549-.518-.587s.3.1.653.462a3.366 3.366 0 01.888 1.731 3.4 3.4 0 01-.224 1.94c-.2.462-.426.685-.449.666" fill="#1a2e35"/><g transform="translate(0 .003)" filter="url(#t)"><path data-name="Fill 198" d="M85.368 207.13s18.31 2.821 19.051 2.988c1.113.252 1.4 4.238-.267 4.378-.789.066-13.556 2.134-15.188 2.234s-6.754-1.27-6.754-1.27z" fill="#390b12"/></g><path data-name="Fill 200" d="M93.44 213.533a19.467 19.467 0 01.523-2.111 18.262 18.262 0 01.998-1.889 3.282 3.282 0 00-1.258 1.765 3.747 3.747 0 00-.263 2.235" fill="#1a2e35"/><path data-name="Fill 202" d="M91.044 212.733c.1 0 .2-.762.62-1.638s.984-1.512.901-1.562a3.147 3.147 0 00-1.231 1.472 2.339 2.339 0 00-.29 1.728" fill="#1a2e35"/><path data-name="Fill 204" d="M89.533 212.733c.06-.018-.058-.966.128-2.078a17.874 17.874 0 01.517-1.922 3.309 3.309 0 00-.711 1.84 4.561 4.561 0 00.066 2.16" fill="#1a2e35"/><path data-name="Fill 206" d="M89.316 210.087a3.234 3.234 0 00.027-1.254 6.354 6.354 0 00-.3-1.328 6.032 6.032 0 00-.306-.735.917.917 0 00-.285-.374.379.379 0 00-.513.1.784.784 0 00-.149.49 3.509 3.509 0 00.028.439 3.978 3.978 0 00.181.8 5.112 5.112 0 00.6 1.2 3.222 3.222 0 00.783.908c.032-.031-.262-.383-.635-1.017a5.7 5.7 0 01-.528-1.183 3.968 3.968 0 01-.155-.746c-.021-.254-.059-.568.063-.708.063-.074.129-.088.197-.046a.7.7 0 01.2.267 6.434 6.434 0 01.307.7 7.179 7.179 0 01.339 1.265c.126.743.108 1.22.15 1.221" fill="#1a2e35"/><path data-name="Fill 208" d="M89.385 209.623a1.909 1.909 0 00-1.079-.053 4.057 4.057 0 00-1.147.345 2.43 2.43 0 00-.641.4.954.954 0 00-.281.971.871.871 0 00.659.63 1.26 1.26 0 00.736-.11 2.878 2.878 0 001-.8 3.594 3.594 0 00.678-1.028 7.826 7.826 0 00-.8.852 2.869 2.869 0 01-.954.68 1.083 1.083 0 01-.61.079.592.592 0 01-.45-.419.579.579 0 01.189-.6 2.418 2.418 0 01.568-.366 4.82 4.82 0 011.083-.398c.637-.149 1.047-.128 1.049-.183" fill="#1a2e35"/><path data-name="Fill 210" d="M95.932 213.533a13.678 13.678 0 01.115-1.674 11.813 11.813 0 01.508-1.52c-.027-.069-.528.449-.717 1.44a2.852 2.852 0 00.094 1.754" fill="#1a2e35"/><path data-name="Fill 212" d="M83.804 215.289a4.113 4.113 0 00.723.205 17.614 17.614 0 002.043.321 33.018 33.018 0 006.834-.144c2.65-.3 5.026-.646 6.751-.882l2.039-.3a4.242 4.242 0 00.741-.146 4.34 4.34 0 00-.759.047l-2.05.22-6.757.808a37.23 37.23 0 01-6.777.215c-1.734-.121-2.774-.393-2.788-.344" fill="#1a2e35"/><path data-name="Fill 214" d="M83.007 216.197c.029.035.479-.28 1.252-.7a6.556 6.556 0 013.277-.886 5.538 5.538 0 013.1 1.27 10.324 10.324 0 001.143.85 5.256 5.256 0 00-1.006-1 7.024 7.024 0 00-1.3-.884 4.486 4.486 0 00-1.925-.514 6.21 6.21 0 00-3.399 1 4.653 4.653 0 00-1.142.864" fill="#1a2e35"/><path data-name="Fill 216" d="M141.445 131.763l.432-.875a2.5 2.5 0 00-.251-.88c-.209-.369-.954-.339-.954-.339l.112-.245a1.1 1.1 0 00-.092-1.077c-.034-.048-.069-.1-.108-.145a1.774 1.774 0 00-.942-.482s.423-.823.235-1.166a1.756 1.756 0 00-1.809-.72 26 26 0 00-3.292 1.582.771.771 0 01-1.1-.408 11.292 11.292 0 00-1.608-3.049 1.664 1.664 0 00-1.983-.726.364.364 0 00-.179.527 19.573 19.573 0 011.155 2.123c.207.558.439 4.779.439 4.779l-1.146 2.2-11.584 18.446s-17.471-11.875-17.402-12.175l-.823 13.619 13.169 8.82a9.2 9.2 0 007.764 1.175 9.3 9.3 0 005.857-5.214l8.861-19.4 1.075-1.586 4.174-2.7s.681-1.21.533-1.564a1.141 1.141 0 00-.533-.52z" fill="#ffbf9d"/><path data-name="Fill 218" d="M139.608 127.557a.429.429 0 01-.077.073l-.234.193-.872.693-1.3 1.017c-.249.187-.493.4-.787.585a1.123 1.123 0 01-1.035.139.785.785 0 01-.384-.4 1.168 1.168 0 01-.094-.536 1.552 1.552 0 01.413-.91 5.955 5.955 0 01.65-.609l.587-.5.856-.717.235-.19a.443.443 0 01.086-.062.405.405 0 01-.073.077l-.224.206-.83.742-.579.508a6.054 6.054 0 00-.634.607 1.462 1.462 0 00-.387.853.846.846 0 00.418.84.822.822 0 00.488.049 1.352 1.352 0 00.457-.182c.281-.173.532-.389.781-.574l1.313-1 .891-.668.245-.177a.414.414 0 01.09-.056" fill="#ff9a6c"/><path data-name="Fill 220" d="M141.203 129.533a1.18 1.18 0 01-.2.175 19.74 19.74 0 01-.57.435 30.85 30.85 0 01-1.954 1.322 5.819 5.819 0 01-.586.337 1.186 1.186 0 01-.624.125.987.987 0 01-.807-.686 1.058 1.058 0 01.058-.746.838.838 0 01.106-.17c.031-.035.048-.051.051-.048s-.057.079-.12.237a1.051 1.051 0 00-.021.7.908.908 0 00.744.606 1.108 1.108 0 00.571-.122 5.992 5.992 0 00.569-.332 49.912 49.912 0 001.971-1.29l.588-.4a1.189 1.189 0 01.224-.143" fill="#ff9a6c"/><path data-name="Fill 222" d="M141.203 131.133a.894.894 0 01-.186.118l-.529.282c-.447.235-1.071.551-1.754.9a5.042 5.042 0 01-.517.233.934.934 0 01-.534.045.588.588 0 01-.4-.3.738.738 0 01-.055-.449.961.961 0 01.31-.543.576.576 0 01.179-.13 2.171 2.171 0 01-.155.16.975.975 0 00-.265.524.665.665 0 00.064.393.5.5 0 00.345.251.854.854 0 00.483-.049 5.051 5.051 0 00.5-.235c.69-.344 1.315-.65 1.77-.868l.54-.252a.89.89 0 01.2-.08" fill="#ff9a6c"/><path data-name="Fill 224" d="M142 133.002a5.923 5.923 0 01-.708.138c-.441.075-1.05.173-1.725.275l-.493.075a2.727 2.727 0 01-.477.043.835.835 0 01-.421-.114.306.306 0 01-.162-.269.481.481 0 01.272-.355.409.409 0 01.182-.062c.005.008-.063.027-.154.088a.445.445 0 00-.219.33.258.258 0 00.14.214.745.745 0 00.366.089 2.645 2.645 0 00.451-.046l.492-.075c.675-.1 1.287-.192 1.732-.252a6.147 6.147 0 01.724-.079" fill="#ff9a6c"/><path data-name="Fill 226" d="M137.216 132.44a3.38 3.38 0 00-1.2-.224 3.725 3.725 0 00-1.191.435 1.7 1.7 0 011.183-.634 1.48 1.48 0 011.208.423" fill="#ff9a6c"/><path data-name="Fill 228" d="M74.199 128.478s-5.907-5.045-4.538-8.525 5.158-5.2 7.022-11.522c1.49-5.051 10.364-14.78 20.879-7.467 0 0 3.559-.569 5.584 1.074s2.512 4.921 3.371 8.707c1.325 5.833 2.05 10.318-.514 13.169s-3.5 3.622-3.362 6.866c.179 4.234 2.022 3.667.432 6.754l-8.818-2.918-.091-2.46-.893 2.315-5.132-1.87z" fill="#272422"/><path data-name="Fill 230" d="M103.944 107.133c-.564 1.309-.1 2.821.434 4.142a7.508 7.508 0 01.885 4.122c-.48 2.484-3.53 3.868-3.868 6.375-.181 1.344.485 2.71.228 4.042a4.631 4.631 0 01-2.443 2.9c-1.128.648-2.379 1.078-3.44 1.833 0 0-2.335 1.935-6.355-1.255" fill="#272422"/><path data-name="Fill 232" d="M87.132 103.991a2.189 2.189 0 00-2.58 1.461l-8.54 28.469c-1.1 3.329 3.067 6.884 6.625 8.043 3.593 1.17 4.32-.545 5.462-3.68 1.909-5.237 2.591-7.214 2.583-7.184 0 0 4.767.822 7.745-4.758a67.036 67.036 0 004.116-11.666c1-3.621.172-8.785-3.473-9.639z" fill="#ffbf9d"/><path data-name="Fill 234" d="M99.716 117.765a.789.789 0 01-.99.533.807.807 0 01-.54-1 .79.79 0 01.989-.53.808.808 0 01.541 1" fill="#1a2e35"/><path data-name="Fill 236" d="M100.513 116.728c-.135.073-.587-.62-1.45-.932s-1.646-.091-1.706-.236c-.026-.066.141-.227.486-.337a2.222 2.222 0 011.408.053 2.258 2.258 0 011.106.879c.194.31.219.542.153.573" fill="#1a2e35"/><path data-name="Fill 238" d="M91.744 115.365a.79.79 0 01-.99.533.806.806 0 01-.54-1 .79.79 0 01.99-.53.807.807 0 01.54 1" fill="#1a2e35"/><path data-name="Fill 240" d="M92.542 114.328c-.136.073-.588-.62-1.451-.932s-1.646-.091-1.706-.236c-.026-.066.139-.227.486-.337a2.222 2.222 0 011.408.053 2.253 2.253 0 011.106.879c.194.31.219.542.154.573" fill="#1a2e35"/><path data-name="Fill 242" d="M93.371 121.012a6.181 6.181 0 011.439.214c.22.049.437.075.523-.05a1.026 1.026 0 00.077-.643l-.066-1.736a26.236 26.236 0 01.06-4.464 26.438 26.438 0 01.321 4.459l.036 1.736a1.174 1.174 0 01-.18.825.583.583 0 01-.458.179 1.62 1.62 0 01-.379-.071 5.948 5.948 0 01-1.373-.449" fill="#1a2e35"/><path data-name="Fill 244" d="M90.979 131.304a15.859 15.859 0 01-7.175-4.971s.583 4.863 6.686 6.4z" fill="#ff9a6c"/><path data-name="Fill 246" d="M92.539 123.256a1.379 1.379 0 00-1-.888 1.263 1.263 0 00-.976.155.794.794 0 00-.357.839.927.927 0 00.865.571 2.915 2.915 0 001.117-.23.847.847 0 00.281-.142.255.255 0 00.093-.271" fill="#ff9a6c"/><path data-name="Fill 248" d="M93.359 111.873c-.128.16-.961-.04-1.987-.092s-1.887.036-1.981-.134c-.041-.081.142-.22.511-.339a4.443 4.443 0 011.54-.167 4.217 4.217 0 011.484.34c.34.159.49.317.433.392" fill="#1a2e35"/><path data-name="Fill 250" d="M101.293 114.302c-.214.149-.8-.267-1.574-.526-.765-.284-1.46-.324-1.559-.583-.04-.124.113-.293.445-.392a2.3 2.3 0 011.365.083 2.545 2.545 0 011.159.811c.222.3.26.532.164.607" fill="#1a2e35"/><path data-name="Fill 252" d="M77.427 122.923l4.726-16.062a5.511 5.511 0 011.597-2.963 5.105 5.105 0 013.058-.752 57.214 57.214 0 0113.707 1.373 2.39 2.39 0 01-1.752 2.479 10.385 10.385 0 01-3.262.241 4.047 4.047 0 00-3.028 1.029c-.789.87-.867 2.216-1.611 3.125-1.283 1.566-3.964 1.24-5.235 2.808-.963 1.189-.7 2.927-1.021 4.431-.361 1.701-.361 1.701-1.679 4.214-.8 1.54 1.227 4.477-.8 8.287l-3.921-1.134 1.721-5.884-2.333 5.518z" fill="#272422"/><path data-name="Fill 254" d="M90.819 120.742c.1.052.048.282.042.613a2.28 2.28 0 00.274 1.185 2.572 2.572 0 00.911.881c.3.184.537.277.528.381s-.287.187-.741.09a2.186 2.186 0 01-1.4-1.018 1.856 1.856 0 01-.117-1.628c.172-.4.417-.554.5-.5" fill="#1a2e35"/><path data-name="Fill 256" d="M89.385 107.933a1.034 1.034 0 01-.212.126 6.585 6.585 0 00-.606.349 7.293 7.293 0 00-1.885 1.755 7.691 7.691 0 00-1.484 3.544 9.041 9.041 0 00.016 2.3 14.512 14.512 0 01.144 2.526 4.712 4.712 0 01-.262 1.273 7.765 7.765 0 01-.547 1.116 5.745 5.745 0 00-.862 2.1 7.485 7.485 0 00.051 2.079c.087.654.2 1.262.242 1.831a5.035 5.035 0 01-.373 2.639 2.693 2.693 0 01-.408.6 1.076 1.076 0 01-.192.162 3.829 3.829 0 00.52-.8 5.118 5.118 0 00.3-2.587c-.05-.556-.169-1.161-.264-1.819a7.569 7.569 0 01-.071-2.136c.161-1.579 1.624-2.736 1.653-4.473a14.7 14.7 0 00-.138-2.485 9.12 9.12 0 010-2.356 7.716 7.716 0 011.557-3.612 6.94 6.94 0 011.96-1.732 4.714 4.714 0 01.631-.314 1.008 1.008 0 01.23-.086" fill="#1a2e35"/><path data-name="Fill 258" d="M109.314 132.007s-.023.023-.075.059a2.624 2.624 0 01-.237.152 3.839 3.839 0 01-1.015.4 4.395 4.395 0 01-1.733.06 3.942 3.942 0 01-2.052-.978 3.959 3.959 0 01-1.23-2.382 3.606 3.606 0 01.1-1.5 4.52 4.52 0 01.735-1.428 19.238 19.238 0 012.47-2.415 9.151 9.151 0 001.215-1.313 6.225 6.225 0 00.832-1.607 9.946 9.946 0 00.469-3.522 24.046 24.046 0 00-.362-3.327 30.312 30.312 0 00-1.489-5.491 31.891 31.891 0 00-1.564-3.524c-.21-.405-.378-.718-.495-.929a2.151 2.151 0 01-.163-.329 2.321 2.321 0 01.2.307c.13.2.311.511.534.911a28.29 28.29 0 011.643 3.51 29.34 29.34 0 011.54 5.508 23.824 23.824 0 01.378 3.356 10.076 10.076 0 01-.477 3.6 6.386 6.386 0 01-.863 1.663 9.283 9.283 0 01-1.238 1.345 19.4 19.4 0 00-2.45 2.373 4.354 4.354 0 00-.713 1.36 3.44 3.44 0 00-.108 1.425 3.745 3.745 0 003.115 3.26 4.385 4.385 0 001.69-.022 5.015 5.015 0 001.347-.523" fill="#1a2e35"/><path data-name="Fill 260" d="M72.643 126.333a3.662 3.662 0 001.355-.693 5.635 5.635 0 001.795-3.735 22.029 22.029 0 00.073-2.967 13.4 13.4 0 01.259-3.428 6.443 6.443 0 01.68-1.74 4.094 4.094 0 011.329-1.407c1.142-.721 2.543-.686 3.787-1.13a3.982 3.982 0 001.613-1.087 10.137 10.137 0 001.141-1.588 8.832 8.832 0 012.349-2.925 3.934 3.934 0 011.632-.612 8.7 8.7 0 011.625-.073 16.146 16.146 0 002.876-.023 8.444 8.444 0 003.824-1.575 9.608 9.608 0 00.879-.738l.214-.21a.525.525 0 01.079-.069 6.11 6.11 0 01-1.122 1.085 8.335 8.335 0 01-3.854 1.662 15.975 15.975 0 01-2.9.052 5.219 5.219 0 00-3.143.672 8.709 8.709 0 00-2.276 2.867 10.252 10.252 0 01-1.165 1.624 4.191 4.191 0 01-1.7 1.146c-1.3.46-2.678.43-3.748 1.111a4.775 4.775 0 00-1.925 3.009 13.356 13.356 0 00-.277 3.372 21.6 21.6 0 01-.1 2.989 5.65 5.65 0 01-1.9 3.782 3.1 3.1 0 01-1.016.542 2.161 2.161 0 01-.29.069.327.327 0 01-.094.018" fill="#375a64"/><path data-name="Fill 262" d="M76.629 108.365a5.072 5.072 0 00.841.225 4.175 4.175 0 002.3-.376 9.6 9.6 0 002.752-2.15c.468-.473.956-.98 1.511-1.458a6.955 6.955 0 011.92-1.22 6.292 6.292 0 012.244-.41 18.993 18.993 0 012.107.116c.666.063 1.3.129 1.886.134a8.245 8.245 0 001.63-.132 4.521 4.521 0 002.135-.936 7.487 7.487 0 00.6-.625.876.876 0 01-.115.2 1.474 1.474 0 01-.168.219 2.123 2.123 0 01-.262.273 4.441 4.441 0 01-2.166 1.024 8.131 8.131 0 01-1.661.161c-.6 0-1.238-.057-1.9-.114a19.6 19.6 0 00-2.084-.1 6.145 6.145 0 00-2.165.4 10.884 10.884 0 00-3.369 2.611 9.5 9.5 0 01-2.836 2.149 4.128 4.128 0 01-2.376.318 2.839 2.839 0 01-.628-.2.875.875 0 01-.196-.109" fill="#375a64"/><path data-name="Fill 264" d="M107.412 120.733a3.778 3.778 0 00.2-.833 3.821 3.821 0 00-.58-2.211 14.336 14.336 0 00-2.233-2.544 6.354 6.354 0 01-1.184-1.682 6.245 6.245 0 01-.5-2.2c-.094-1.554.153-3.007.121-4.323a5.485 5.485 0 00-.9-3.265 2.993 2.993 0 00-1.788-1.235 3.3 3.3 0 00-.8-.021.736.736 0 01.2-.058 1.937 1.937 0 01.613-.008 2.988 2.988 0 011.887 1.219 5.575 5.575 0 01.978 3.361c.042 1.342-.2 2.8-.105 4.312a6.077 6.077 0 00.479 2.119 6.251 6.251 0 001.136 1.632 13.772 13.772 0 012.222 2.608 3.821 3.821 0 01.534 2.305 2.289 2.289 0 01-.173.627.85.85 0 01-.109.2" fill="#375a64"/><path data-name="Fill 266" d="M70.426 123.133a1.529 1.529 0 01-.267-.149 3.084 3.084 0 01-.65-.591 3.875 3.875 0 01-.8-3.086 3.728 3.728 0 01.355-1.034 4.018 4.018 0 01.736-.923 9.329 9.329 0 012.17-1.354 8.511 8.511 0 002.318-1.5 5.572 5.572 0 001.312-2.631c.253-1 .426-2.015.75-2.954a12.821 12.821 0 011.207-2.571 13.257 13.257 0 013.173-3.571 12.141 12.141 0 012.764-1.642 7.81 7.81 0 01.815-.308 1.541 1.541 0 01.292-.086c.009.025-.391.151-1.073.472a12.929 12.929 0 00-2.7 1.686 13.393 13.393 0 00-3.1 3.554 12.849 12.849 0 00-1.171 2.539c-.315.921-.485 1.922-.741 2.94a5.755 5.755 0 01-1.371 2.728 8.6 8.6 0 01-2.388 1.526 9.267 9.267 0 00-2.138 1.308 3.864 3.864 0 00-.71.87 3.606 3.606 0 00-.352.977 3.976 3.976 0 00.1 1.79 3.625 3.625 0 00.617 1.213 4.3 4.3 0 00.851.794" fill="#1a2e35"/><path data-name="Fill 268" d="M109.367 121.533c-.019-.018.186-.205.465-.611a5.16 5.16 0 00.774-1.9 7.067 7.067 0 00-.107-3.034 12.075 12.075 0 00-1.568-3.42c-.716-1.135-1.492-2.171-2.146-3.148a17.85 17.85 0 01-1.544-2.715 8.9 8.9 0 01-.631-2.006 5.337 5.337 0 01-.071-.566.668.668 0 010-.2c.022 0 .05.27.161.749a10.027 10.027 0 00.69 1.959 19.03 19.03 0 001.57 2.664c.66.966 1.442 2 2.168 3.145a11.927 11.927 0 011.574 3.483 7.047 7.047 0 01.061 3.114 4.942 4.942 0 01-.86 1.923 3.5 3.5 0 01-.384.43c-.1.092-.148.136-.153.131" fill="#1a2e35"/><path data-name="Fill 270" d="M64.423 181.007l-3.523 6.07s-17.5-6.344-27.737-4.496c-3.894.7-8.062 9.459-2.388 15.082 5.536 5.486 15.437 13.241 34.011 15.752.463.063 8.071 1.681 7.6 1.627s10.668 1.691 10.668 1.691l2.614-9.8 20.746 3.226c12.226-.826 18.209-13.778 10.847-17.948-6.868-3.891-19.783-4.2-19.783-4.2l-4.678-7.278z" fill="#272422"/><path data-name="Fill 272" d="M83.602 216.733l.5-3.054c.164-.977.366-2.168.627-3.539a65.89 65.89 0 01.451-2.183c.089-.384.183-.778.3-1.179.058-.2.118-.4.192-.605a1.815 1.815 0 01.313-.6l.031.148a296.412 296.412 0 01-15.741-6.065c-3.6-1.525-7-3.066-9.984-4.669a32.35 32.35 0 01-4.095-2.53c-1.215-.893-2.3-1.785-3.311-2.563a17.948 17.948 0 00-5.194-3.035 8.214 8.214 0 00-.909-.268 5.261 5.261 0 00-.679-.146l-.422-.077a.752.752 0 01-.143-.035.673.673 0 01.146.013l.426.054a4.935 4.935 0 01.688.127 7.8 7.8 0 01.921.25 12.339 12.339 0 012.389 1.056 25.114 25.114 0 012.871 1.93c1.022.772 2.11 1.657 3.323 2.539a32.645 32.645 0 004.084 2.5c2.984 1.588 6.377 3.121 9.973 4.644a325.162 325.162 0 0015.713 6.1l.122.044-.091.1a1.78 1.78 0 00-.271.535c-.072.2-.133.4-.191.593-.114.4-.211.786-.3 1.168a68.592 68.592 0 00-.468 2.174c-.273 1.366-.489 2.555-.668 3.529s-.321 1.72-.42 2.252a15.28 15.28 0 01-.125.587 1.479 1.479 0 01-.057.2" fill="#375a64"/><path data-name="Fill 274" d="M113.301 193.333a.418.418 0 01-.112-.01l-.325-.049c-.286-.037-.7-.144-1.244-.2a24.114 24.114 0 00-4.618-.158 34.322 34.322 0 00-6.761 1.112c-1.248.334-2.547.726-3.877 1.185s-2.686.99-4.075 1.542a37.787 37.787 0 01-4.155 1.367 52.247 52.247 0 01-3.967.914c-2.548.5-4.864.8-6.81 1.037s-3.523.4-4.613.508l-1.255.122-.328.03a.439.439 0 01-.112 0 .412.412 0 01.11-.024l.325-.048 1.251-.164 4.6-.578c1.944-.26 4.255-.586 6.793-1.086a53.785 53.785 0 003.949-.923 38.211 38.211 0 004.13-1.364c1.388-.551 2.752-1.082 4.086-1.541s2.641-.848 3.9-1.178a33.578 33.578 0 016.8-1.071 22.784 22.784 0 014.639.235c.545.066.957.187 1.24.239l.32.073a.409.409 0 01.109.03" fill="#375a64"/><path data-name="Fill 276" d="M81.412 189.72c.013.141-.923.367-2.466.506a32.491 32.491 0 01-6.047-.074 32.4 32.4 0 01-5.928-1.163c-1.477-.456-2.342-.863-2.3-.998.1-.3 3.748.637 8.344 1.1 4.592.488 8.366.319 8.4.631" fill="#1a2e35"/><path data-name="Fill 278" d="M97.357 187.933a4.06 4.06 0 01-.669.184c-.218.05-.478.116-.778.216s-.65.185-1.023.324a24.574 24.574 0 00-2.587 1.062 35.144 35.144 0 00-3.008 1.66 47.7 47.7 0 00-5.077 3.683c-.622.511-1.118.935-1.459 1.23a4.278 4.278 0 01-.546.441 4.3 4.3 0 01.49-.506c.324-.316.806-.759 1.417-1.287a40.615 40.615 0 015.058-3.757 32.1 32.1 0 013.035-1.65 21.854 21.854 0 012.626-1.029c.374-.131.73-.218 1.039-.295a7.245 7.245 0 01.8-.174 4.071 4.071 0 01.686-.1" fill="#375a64"/><path data-name="Fill 280" d="M78.224 196.733a4.8 4.8 0 01-1.244-.383 25.609 25.609 0 01-2.841-1.39l-2.754-1.559a9.067 9.067 0 01-1.133-.668 5.736 5.736 0 011.2.51c.727.356 1.707.9 2.786 1.5s2.067 1.111 2.8 1.443a12.549 12.549 0 011.186.547" fill="#375a64"/><path data-name="Fill 282" d="M80.332 181.533a13.4 13.4 0 01-.114 1.644 38.78 38.78 0 00-.116 3.961 39 39 0 00.31 3.956 13.271 13.271 0 01.194 1.639 1.449 1.449 0 01-.138-.43c-.073-.279-.16-.686-.25-1.19a26.916 26.916 0 01-.195-7.949c.066-.507.132-.916.195-1.197a1.437 1.437 0 01.114-.434" fill="#375a64"/><path data-name="Fill 284" d="M82.026 182.516c.011.017-.07.066-.176.189a1.2 1.2 0 00-.262.617 1.161 1.161 0 00.258.911.977.977 0 001.077.21 1 1 0 00.684-.867 1.156 1.156 0 00-.394-.865 1.175 1.175 0 00-.6-.293c-.154-.025-.247-.008-.25-.029s.085-.056.262-.056a1.138 1.138 0 01.688.26 1.282 1.282 0 01.493.988 1.187 1.187 0 01-.807 1.066 1.163 1.163 0 01-1.3-.276 1.29 1.29 0 01-.262-1.074 1.161 1.161 0 01.354-.651c.134-.113.232-.139.235-.13" fill="#375a64"/><path data-name="Fill 286" d="M87.789 175.133a2.737 2.737 0 01-.328.462 12.851 12.851 0 01-1.015 1.148 16.341 16.341 0 01-1.687 1.5 17.808 17.808 0 01-2.3 1.486 17.357 17.357 0 01-2.488 1.071 15.13 15.13 0 01-2.132.542 11.359 11.359 0 01-1.466.177 2.416 2.416 0 01-.541 0c0-.045.766-.09 1.979-.345a17.12 17.12 0 002.1-.585 18.837 18.837 0 002.453-1.072 19.411 19.411 0 002.279-1.453 18.573 18.573 0 001.7-1.443c.918-.888 1.415-1.516 1.446-1.488" fill="#1a2e35"/><path data-name="Fill 288" d="M94.965 179.996c0 .06-.744.06-1.62.265s-1.537.519-1.569.466a3.369 3.369 0 011.517-.66 3.506 3.506 0 011.672-.071" fill="#1a2e35"/><path data-name="Fill 290" d="M77.275 180.714a16.244 16.244 0 009.495-5.581 3.971 3.971 0 01-.933 3.978c1.082.522 2.349.175 3.535.009s2.634 0 3.2 1.07a122.689 122.689 0 01-15.943.463"/><path data-name="Fill 292" d="M67.062 172.89a5.985 5.985 0 00-1.849-1.17 6.078 6.078 0 00-2.343-.387 6.551 6.551 0 00-2.8.732 12.044 12.044 0 00-3.823 3.6 11.487 11.487 0 00-.842 1.357 3.261 3.261 0 01-.3.511 2.82 2.82 0 01.22-.548 9.16 9.16 0 01.79-1.41c.395-.564.91-1.188 1.5-1.876a8.3 8.3 0 012.349-1.825 6.6 6.6 0 012.901-.741 6.021 6.021 0 012.408.444 4.691 4.691 0 011.391.868 2.684 2.684 0 01.307.319c.065.077.1.12.09.125" fill="#1a2e35"/><path data-name="Fill 294" d="M77.746 131.933l-5.9 1.243 2.948 10.935 10.435 2.222 7.159-5.038.982-6.028-6.139-2.3z" fill="#ffbf9d"/><g transform="translate(0 .003)" filter="url(#u)"><path data-name="Fill 296" d="M73.863 131.93s4.028 11.749 11.473 10.663 6.823-8.7 6.823-8.7 7.77 2.378 10.172 4.91.994 8.032.994 8.032l-2.015 9.942-4.383 19.047s1.676 5.194-2.607 6.479l-1.353-2.131-25.7.73s-5.5 6.363-7.209 4.168a32.249 32.249 0 01-3.358-6.472l11.795-45.268z" fill="#390b12"/></g><g transform="translate(0 .003)" filter="url(#v)"><path data-name="Fill 298" d="M99.979 137.53c.206.12 18.1 13.2 18.1 13.2s-1.4 10.752 7.177 9.04c0 0-3.469 8.992-8.165 7.1-1.331-.54-17.831-11.029-17.831-11.029l-3.5-7.505z" fill="#390b12"/></g><g transform="translate(0 .003)" filter="url(#w)"><path data-name="Fill 300" d="M74.237 132.73s-.415.011-1.116.078c-3.594.341-16.861 3.058-18.089 12.313-.642 4.842-.822 19-1.522 24.935 0 0 1.11 8.25 1.522 9.78.734 2.72 14.042-1.634 14.042-1.634l.028-26.2 4.72-19.261" fill="#390b12"/></g><path data-name="Fill 302" d="M65.507 156.733a.741.741 0 01.021.21 5.151 5.151 0 00.041.596 8.294 8.294 0 00.57 2.118c.345.868.87 1.856 1.4 2.987a13.3 13.3 0 01.706 1.828 10.545 10.545 0 01.365 2.061 23.782 23.782 0 01-.107 4.024c-.111 1.229-.218 2.338-.379 3.262a13.517 13.517 0 01-.533 2.157 6.942 6.942 0 01-.22.565.77.77 0 01-.102.192c-.018-.007.084-.278.231-.779a16.12 16.12 0 00.458-2.155c.139-.92.229-2.026.329-3.255a24.942 24.942 0 00.089-3.99 10.61 10.61 0 00-.353-2.026 13.549 13.549 0 00-.683-1.8c-.508-1.13-1.022-2.133-1.352-3.017a7.618 7.618 0 01-.506-2.165 3.6 3.6 0 010-.6.727.727 0 01.025-.213" fill="#1a2e35"/><path data-name="Fill 304" d="M66.285 153.533c.033 0 .062.652.2 1.7a23.855 23.855 0 00.871 4c.121.38.243.749.375 1.1a1.641 1.641 0 00.1.24l.14.233c.091.157.177.314.251.474a4.244 4.244 0 01.44 1.819 3.42 3.42 0 01-.237 1.234 1.693 1.693 0 01-.215.4 4.624 4.624 0 00.3-1.64 4.227 4.227 0 00-.462-1.73 6.391 6.391 0 00-.248-.454l-.142-.231a1.708 1.708 0 01-.116-.274c-.136-.353-.26-.726-.383-1.11a20.2 20.2 0 01-.818-4.047 16.557 16.557 0 01-.075-1.253 1.985 1.985 0 01.019-.461" fill="#1a2e35"/><path data-name="Fill 306" d="M66.262 149.533c-.033.012-.217-.514-.582-1.33a19.007 19.007 0 00-1.711-3.029 18.782 18.782 0 00-2.243-2.641c-.635-.622-1.062-.971-1.041-1a1.353 1.353 0 01.326.213c.2.146.483.375.816.673a15.559 15.559 0 012.314 2.63 15.761 15.761 0 011.675 3.093c.167.419.287.765.356 1.008a1.414 1.414 0 01.09.383" fill="#1a2e35"/><path data-name="Fill 308" d="M103.724 141.533a5.377 5.377 0 01-.087 1.059c-.083.65-.192 1.547-.3 2.541s-.176 1.892-.233 2.545a5.4 5.4 0 01-.13 1.055 4.57 4.57 0 01-.031-1.064c.016-.657.068-1.563.171-2.561s.24-1.894.36-2.54a4.558 4.558 0 01.25-1.035" fill="#1a2e35"/><path data-name="Fill 310" d="M106.923 152.742c.005.04-.533.091-1.36.338a6.36 6.36 0 00-2.844 1.729 8.02 8.02 0 00-1.086 1.531 11.683 11.683 0 00-.625 1.422l-.2.568-.128.436a1.4 1.4 0 01-.135.367 1.411 1.411 0 01.055-.388l.095-.449.169-.585a10.017 10.017 0 01.6-1.468 7.628 7.628 0 011.1-1.586 6.071 6.071 0 012.961-1.724 4.956 4.956 0 01.578-.124 4.1 4.1 0 01.442-.058 1.294 1.294 0 01.378-.009" fill="#1a2e35"/><path data-name="Fill 312" d="M119.676 164.733a2.633 2.633 0 01-.334-.474 6.148 6.148 0 01-.341-.58c-.121-.231-.273-.489-.4-.789a14.007 14.007 0 01-.792-2.136 15.3 15.3 0 01-.484-2.716 15.129 15.129 0 01.056-2.747 13.656 13.656 0 01.453-2.209c.079-.312.189-.585.273-.828a5.949 5.949 0 01.248-.613 2.521 2.521 0 01.257-.508c.047.014-.281.75-.6 1.985a15.3 15.3 0 00-.396 2.193 16.391 16.391 0 00-.036 2.713 16.516 16.516 0 00.459 2.683 15.832 15.832 0 00.731 2.126c.509 1.186.949 1.878.905 1.9" fill="#1a2e35"/><path data-name="Fill 314" d="M114.574 161.533a2.137 2.137 0 01-.154-.452 8.874 8.874 0 01-.249-1.287 10.771 10.771 0 01.373-4.3 9.894 9.894 0 012.02-3.736 1.708 1.708 0 011.086-.625.714.714 0 01.336.07c.069.041.1.067.1.073a1.152 1.152 0 00-.43-.057 1.731 1.731 0 00-.988.647 10.527 10.527 0 00-1.928 3.697 11.454 11.454 0 00-.424 4.214c.1 1.09.3 1.744.258 1.756" fill="#1a2e35"/><path data-name="Fill 316" d="M85.395 159.133a2.22 2.22 0 01-.105.5 4.774 4.774 0 01-.175.57c-.08.218-.158.472-.284.738a11.789 11.789 0 01-.975 1.818 13.579 13.579 0 01-1.6 1.969 13.706 13.706 0 01-1.97 1.605 12.2 12.2 0 01-1.831 1c-.268.129-.525.212-.746.3a4.957 4.957 0 01-.58.182 2.365 2.365 0 01-.5.118c-.013-.042.7-.232 1.76-.734a13.384 13.384 0 001.782-1.027 14.6 14.6 0 001.928-1.6 14.465 14.465 0 001.586-1.926 13.008 13.008 0 001-1.77c.49-1.053.667-1.755.71-1.743" fill="#1a2e35"/><path data-name="Fill 318" d="M70.554 163.623l-2.538-9.042c-.123-.439-.329-.958-.79-1.039a.864.864 0 00-.9.738 4.744 4.744 0 00-.025 1.321 10.171 10.171 0 001.295 4.818c1.826 2.964.622 4.4.622 4.4a39.772 39.772 0 01-1.317 12.241l1.086 4.473c1.032-3.324 3.387-6.1 3.784-9.55.324-2.815-.45-5.628-1.217-8.36" fill="rgba(39,36,34,0.5)"/><path data-name="Fill 320" d="M101.343 157.09c3.061 1.52 5.784 3.618 8.769 5.243a13.546 13.546 0 00-5.494-5.858 3.574 3.574 0 00-2.075-.523c-.72.097-1.24.481-1.131 1.173" fill="rgba(39,36,34,0.5)"/><path data-name="Fill 322" d="M117.881 150.511c-.956-.024-1.683.875-2.147 1.738a13.762 13.762 0 00-1.546 8.074c.058.5.237 1.1.714 1.2a.828.828 0 00.846-.52 2.5 2.5 0 00.16-1.07 36.134 36.134 0 01.121-5.082 7.6 7.6 0 012.055-4.518" fill="rgba(39,36,34,0.5)"/><path data-name="Fill 324" d="M72.643 153.698a.458.458 0 01.1-.012l.3-.02 1.178-.062 4.445-.2 15.74-.671h.1v.1l.436 17.7.015.641v.114h-.114a155.73 155.73 0 00-19.369 1.433l-.085.012-.023-.081a68.287 68.287 0 01-2.311-13.852 63.244 63.244 0 01-.121-3.933c0-.454.01-.8.014-1.036l.008-.266a.432.432 0 01.008-.09.37.37 0 01.008.09c0 .068 0 .155.007.266 0 .244.008.59.015 1.035.018.907.055 2.237.175 3.927a70.175 70.175 0 002.385 13.807l-.111-.067a152.01 152.01 0 0119.4-1.469l-.112.115-.016-.641-.411-17.7.1.1-15.733.581-4.447.148-1.181.031h-.3a.516.516 0 01-.1 0" fill="#fff"/><path data-name="Fill 326" d="M78.217 167.133c-.067.01-.653-2.847-1.31-6.382s-1.135-6.408-1.069-6.418.653 2.847 1.31 6.382 1.136 6.408 1.069 6.418" fill="#fff"/><path data-name="Fill 328" d="M79.004 172.733a12.857 12.857 0 01-.5-2.382 12.84 12.84 0 01-.263-2.418 12.879 12.879 0 01.5 2.382 12.84 12.84 0 01.263 2.418" fill="#fff"/><path data-name="Fill 330" d="M83.003 163.933a1.924 1.924 0 01-.088-.4c-.046-.258-.1-.633-.169-1.1a59.23 59.23 0 01-.536-7.365c0-.474 0-.858.009-1.123a2.012 2.012 0 01.029-.412c.024 0 .041.585.077 1.53s.1 2.248.2 3.684.233 2.729.334 3.665.167 1.515.144 1.521" fill="#fff"/><path data-name="Fill 332" d="M82.194 171.933a22.941 22.941 0 01-.495-3.185 23.082 23.082 0 01-.27-3.215 22.926 22.926 0 01.495 3.186 22.989 22.989 0 01.27 3.214" fill="#fff"/><path data-name="Fill 334" d="M86.98 171.133a3.683 3.683 0 01-.1-.693l-.193-1.892c-.161-1.6-.4-3.8-.729-6.231s-.681-4.623-.949-6.21l-.316-1.88a3.609 3.609 0 01-.092-.694 3.811 3.811 0 01.19.68c.1.439.24 1.079.4 1.87.314 1.582.7 3.776 1.024 6.21s.538 4.64.653 6.24c.058.8.1 1.449.112 1.9a3.626 3.626 0 010 .7" fill="#fff"/><path data-name="Fill 336" d="M90.882 171.933a5.594 5.594 0 01-.025-.725c0-.5-.008-1.17-.014-1.975-.01-1.667-.046-3.969-.142-6.509s-.235-4.838-.348-6.499l-.136-1.967a5.552 5.552 0 01-.035-.725 5.634 5.634 0 01.1.715c.053.462.12 1.132.192 1.962.146 1.659.3 3.958.4 6.5s.118 4.854.098 6.523c-.01.835-.025 1.51-.043 1.976a5.564 5.564 0 01-.047.724" fill="#fff"/><path data-name="Fill 338" d="M76.756 168.18a3.687 3.687 0 002.273.544 7.359 7.359 0 002.3-.591 6.941 6.941 0 002.613-1.692 5.894 5.894 0 001.319-3.008 17.4 17.4 0 00.111-3.309.24.24 0 00-.032-.139.175.175 0 00-.245-.005.5.5 0 00-.131.233 12.431 12.431 0 01-8.335 7.736" fill="rgba(39,36,34,0.5)"/><g data-name="Group 342"><path data-name="Clip 341" d="M55.998 171.428h22.671v46.905H55.998z" fill="none"/><g data-name="Group 342" clip-path="url(#x)" transform="translate(55.902 171.133)"><path data-name="Fill 340" d="M18.105 33.516l-2.57-4.921L9.761 1.003S4.447-2.105.096 4.716c-.175.275 5.984 20.037 7.7 25.536l.241 5.258s-.305 6.226 0 6.771a2.451 2.451 0 001.067.856 1.5 1.5 0 001.525 1.712s.153 1.712 1.449 1.479a2.48 2.48 0 001.753-1.089s0 2.179 1.143 1.946 1.33-1.168 1.542-1.479a24.323 24.323 0 00.453-3.5l-.021-5.272 2.984 2.461c.86.438 2.119.98 2.835.326z" fill="#ffbf9d"/></g></g><path data-name="Fill 343" d="M72.943 207.133a5.2 5.2 0 01.32 2.8c-.062.724-.12 1.379-.176 1.98-.049.505-.082.82-.144.82a6.852 6.852 0 01-.092-2.8c.14-1.547-.015-2.792.092-2.8" fill="#ff9a6c"/><path data-name="Fill 345" d="M69.788 211.133a9.663 9.663 0 01.273 2.8 9.563 9.563 0 01-.142 2.8 9.69 9.69 0 01-.273-2.8 9.567 9.567 0 01.142-2.8" fill="#ff9a6c"/><path data-name="Fill 347" d="M66.887 211.933a3.556 3.556 0 01.1 2.025 3.979 3.979 0 01-.696 1.975 12.019 12.019 0 01.318-2 11.874 11.874 0 01.278-2" fill="#ff9a6c"/><path data-name="Fill 349" d="M65.286 211.133c.114.006.11.548-.01 1.211s-.305 1.195-.422 1.189-.11-.548.01-1.211.307-1.196.422-1.189" fill="#ff9a6c"/><g data-name="Phone"><g transform="translate(.004 .003)" filter="url(#y)"><path data-name="Fill 146" d="M134.481 119.93c-.081.219-2.051 17.6-2.051 17.6l7.6-1.289 1.966-14.362z" fill="#390b12"/></g><path data-name="Fill 148" d="M132.958 137.533l-.524-.32 1.591-17.28.8.235z" fill="#8f5f43"/><path data-name="Fill 150" d="M138.014 123.533a.4.4 0 10.4-.4.4.4 0 00-.4.4" fill="#8f5f43"/></g><path data-name="Path 4" d="M141.203 127.533h-3.189s-1.993 1.2.4 1.6l2.394.4s-2.954-.4-3.352.4 3.587 1.2 3.587 1.2a9.9 9.9 0 01-2.79 1.2c-1.594.4 2.392 1.2 2.392 1.2z" fill="#ffbf9d"/></g></g></svg>